<?xml version="1.0" encoding="UTF-8"?>
<svg width="443px" height="188px" viewBox="0 0 443 188" version="1.1" xmlns="http://www.w3.org/2000/svg" xmlns:xlink="http://www.w3.org/1999/xlink">
    <!-- Generator: Sketch 42 (36781) - http://www.bohemiancoding.com/sketch -->
    <title>logo15b</title>
    <desc>Created with Sketch.</desc>
    <defs></defs>
    <g id="Page-1" stroke="none" stroke-width="1" fill="none" fill-rule="evenodd">
        <g id="logo15b" fill-rule="nonzero">
            <g id="Group">
                <polygon id="Shape" fill="#111C21" points="283.1 16.4 268.7 30.8 268.7 30.8 252 14.1 247 19.2 247 19.2 185.9 19.2 179.8 25.3 179.8 5.5 151 34.3 151 26.3 125.7 0.9 106.4 20.2 106.4 25.3 100.3 19.2 63.8 19.2 63.8 19.2 63.8 19.2 45 0.4 19.2 26.3 19.2 97.5 0.9 115.7 20.2 135 30.5 135 30.5 141.1 55.7 166.4 71.2 166.4 71.2 167.3 91.3 187.4 111.6 168.5 152.3 168.5 158.9 161.9 184.3 187.2 203.1 168.5 203.1 168.5 203.1 168.5 257 168.5 284.5 141 284.5 113.2 293.9 122.6 313.3 103.3 313.3 46.6"></polygon>
                <polygon id="Shape" fill="#00B5B5" points="190.9 115.6 211.3 115.6 190.9 95.3"></polygon>
                <g transform="translate(10.000000, 10.000000)" id="Shape" fill="#00B5B5">
                    <polygon points="180.9 62 191.1 51.8 180.9 51.8 180.9 41.7 201.3 41.7 201.3 41.6 201.3 41.7 221.7 21.3 201.3 21.3 201.3 21.3 201.3 21.3 180.9 21.3 160.6 41.7 160.6 62 160.6 82.4 180.9 82.4 201.3 82.4 221.7 62 201.3 62"></polygon>
                    <polygon points="116.9 126 127.1 115.8 116.9 115.8 116.9 105.6 137.3 105.6 137.3 105.6 137.3 105.6 157.7 85.3 137.3 85.3 137.3 85.3 137.3 85.3 116.9 85.3 96.6 105.6 96.6 126 96.6 146.4 116.9 146.4 137.3 146.4 157.7 126 137.3 126"></polygon>
                    <path d="M105.6,41.7 L85.2,21.3 L44.5,21.3 L44.5,62 L64.9,82.4 L105.6,82.4 L105.6,82.4 L105.6,82.4 L105.6,41.7 L105.6,41.7 Z M64.9,62 L64.9,41.7 L85.3,41.7 L85.3,62 L64.9,62 Z"></path>
                    <polygon points="128.9 82.4 128.9 82.4 128.9 82.4 128.9 82.3 143.3 68 157.7 53.6 157.7 24.8 128.9 53.5 128.9 21.3 108.5 0.9 108.5 62 128.9 82.3"></polygon>
                    <polygon points="41.7 0.9 21.3 21.3 21.3 92.6 0.9 112.9 21.3 112.9 41.7 92.6"></polygon>
                    <polygon points="221.7 41.7 221.7 62 242 82.4 242 50.1 256.4 64.5 270.8 50.1 242 21.3"></polygon>
                    <polygon points="270.8 21.3 270.8 50.1 270.8 82.4 291.2 102.7 291.2 41.7"></polygon>
                    <polygon points="160.6 146.4 180.9 166.7 180.9 105.6 160.6 85.3"></polygon>
                    <path d="M73.3,85.3 L73.3,166.7 L93.7,146.3 L93.7,85.2 L73.3,85.2 L73.3,85.3 Z M32.6,105.6 L32.6,126 L53,146.4 L53,105.7 L53,85.3 L32.6,105.6 Z M73.3,105.6 L73.3,85.2 L53,105.6 L73.3,105.6 Z"></path>
                    <polygon points="242 85.3 242 105.6 242 126 242 126 221.7 126 221.7 126 221.7 126 221.7 126 221.7 105.6 242 105.6 221.7 85.3 201.3 105.6 201.3 126 201.3 126 201.3 146.4 221.7 146.4 221.7 146.4 221.7 146.4 242 146.4 262.4 126 262.4 105.6 262.4 85.3 262.4 64.9"></polygon>
                </g>
            </g>
            <g id="Group" transform="translate(329.000000, 34.000000)">
                <path d="M1,64.3 L12.3,12.5 C12.8,10.1 14.8,8.3 17.2,7.9 L62.8,1 C64.5,0.7 66.3,1.2 67.6,2.4 L104.2,34.2 C106,35.8 106.7,38.2 105.9,40.5 L90.9,86.4 C90.3,88.1 89.1,89.5 87.4,90.1 L43.2,107 C41,107.9 38.4,107.3 36.8,105.5 L2.5,69.5 C1.1,68.2 0.6,66.2 1,64.3 Z" id="Shape" fill="#111C21"></path>
                <g transform="translate(9.000000, 8.000000)" id="Shape" fill="#00B5B5">
                    <path d="M68.6,77.2 L32.4,87.5 C32.2,87.5 32,87.5 31.9,87.4 L4.9,61.2 C4.5,60.8 4.9,60.2 5.4,60.3 L68.6,76.2 C69,76.3 69,77.1 68.6,77.2 Z"></path>
                    <path d="M49.3,1.7 L4,48.5 C3.6,48.9 3,48.5 3.1,48 L12.3,11.5 C12.3,11.3 12.5,11.2 12.7,11.1 L48.9,0.8 C49.3,0.7 49.6,1.3 49.3,1.7 Z"></path>
                    <path d="M75,75 L1,56.4 C0.6,56.3 0.5,55.8 0.8,55.6 L53.9,0.8 C54.2,0.5 54.6,0.6 54.7,1 L75.6,74.3 C75.7,74.8 75.4,75.1 75,75 Z"></path>
                    <path d="M59.6,4.7 L86.6,30.9 C86.7,31 86.8,31.2 86.7,31.4 L77.5,67.9 C77.4,68.4 76.7,68.4 76.5,67.9 L58.6,5.2 C58.6,4.7 59.2,4.3 59.6,4.7 Z"></path>
                </g>
                <g transform="translate(29.000000, 69.000000)" id="Shape">
                    <path d="M82.4,12 C69.5,1.5 52.2,-2.1 36.2,2.1 C20.1,6.4 6.9,18.3 0.9,33.9 L0.6,34.6 C-0.1,36.5 1.2,38.6 3.3,38.7 L12.4,39 C13.4,39 14.3,39.5 14.8,40.4 L20,48.4 C21.4,50.6 24.8,50.1 25.5,47.5 L25.8,46.3 C28,37.7 34.7,31 43.3,28.7 C51.7,26.5 60.5,28.8 66.8,34.9 L67.6,35.7 C69.4,37.5 72.5,36.3 72.7,33.8 L73.4,24.2 C73.5,23.2 74.1,22.3 74.9,21.8 L82.5,17.5 C84.4,16.5 84.6,13.9 82.9,12.5 L82.4,12 Z" fill="#111C21"></path>
                    <path d="M36.8,4.4 C21.6,8.4 10.1,19.2 4.5,32.7 C4.2,33.4 4.7,34.1 5.4,34.1 L15.2,34.4 C15.5,34.4 15.8,34.6 16,34.9 L20.9,42.5 C21.4,43.2 22.4,43.1 22.7,42.3 C25.6,33.7 32.7,26.8 42.1,24.2 C51.3,21.7 60.7,24.2 67.5,29.9 C68.1,30.4 69.1,30 69.2,29.2 L69.9,19.8 C69.9,19.5 70.1,19.2 70.4,19 L78.6,14.4 C79.2,14 79.3,13.1 78.7,12.7 C67.1,3.9 51.9,0.4 36.8,4.4 Z" fill="#00B5B5"></path>
                    <g transform="translate(15.000000, 6.000000)" fill="#111C21">
                        <path d="M11.3,20.4 L9.7,19.8 L6.3,23.6 L7.1,25.1 C7.4,25.7 7.6,26.1 7.6,26.4 C7.7,26.7 7.6,26.9 7.3,27.2 C7.1,27.4 6.8,27.6 6.5,27.6 C6.2,27.6 5.9,27.5 5.7,27.3 C5.6,27.2 5.5,27 5.4,26.9 C5.3,26.7 5.2,26.5 5,26.2 L1.1,18.3 C1,18.1 0.9,17.8 0.7,17.5 C0.5,17.2 0.4,16.9 0.4,16.6 C0.3,16.3 0.3,16.1 0.4,15.8 C0.5,15.5 0.6,15.3 0.8,15 C1,14.7 1.3,14.6 1.5,14.5 C1.8,14.4 2,14.4 2.3,14.4 C2.6,14.4 2.8,14.5 3.1,14.6 C3.3,14.7 3.7,14.8 4.1,15 L12.3,18 C12.9,18.2 13.4,18.4 13.6,18.6 C13.8,18.8 13.9,19.1 14,19.4 C14,19.7 13.9,20 13.7,20.3 C13.6,20.4 13.4,20.6 13.3,20.6 C13.2,20.7 13,20.7 12.8,20.7 C12.6,20.7 12.4,20.6 12.2,20.6 C11.8,20.6 11.5,20.5 11.3,20.4 Z M5.4,21.9 L7.9,19.1 L2.8,17 L5.4,21.9 Z"></path>
                        <path d="M13.6,6.9 L21.2,11.5 L18,4.8 C17.8,4.4 17.7,4 17.8,3.7 C17.9,3.4 18.1,3.2 18.4,3 C18.7,2.8 19,2.8 19.3,3 C19.6,3.1 19.8,3.4 20.1,3.8 L24.4,12.7 C24.9,13.7 24.7,14.4 23.9,14.8 C23.7,14.9 23.5,15 23.3,15 C23.1,15 22.9,15 22.7,14.9 C22.5,14.8 22.3,14.8 22.1,14.6 C21.9,14.5 21.7,14.4 21.5,14.2 L14,9.7 L17.2,16.3 C17.4,16.7 17.5,17.1 17.4,17.4 C17.3,17.7 17.1,18 16.8,18.1 C16.5,18.3 16.2,18.3 15.9,18.1 C15.6,18 15.3,17.7 15.1,17.3 L10.9,8.5 C10.7,8.1 10.6,7.8 10.6,7.6 C10.6,7.3 10.7,7.1 10.8,6.8 C11,6.5 11.2,6.4 11.4,6.2 C11.6,6.1 11.8,6 12,6 C12.2,6 12.4,6 12.5,6.1 C12.7,6.2 12.8,6.3 13.1,6.4 C13.2,6.7 13.4,6.8 13.6,6.9 Z"></path>
                        <path d="M31.4,0.3 C32.7,0.2 33.8,0.4 34.8,0.9 C35.8,1.4 36.5,2.1 37.1,3 C37.7,3.9 38,5.1 38,6.4 C38.1,7.4 38,8.3 37.8,9.1 C37.6,9.9 37.2,10.6 36.8,11.2 C36.3,11.8 35.7,12.3 35,12.7 C34.3,13.1 33.4,13.3 32.4,13.3 C31.4,13.4 30.5,13.3 29.7,13 C28.9,12.7 28.2,12.3 27.7,11.8 C27.1,11.3 26.7,10.6 26.4,9.8 C26.1,9 25.9,8.1 25.8,7.2 C25.7,6.2 25.8,5.3 26,4.5 C26.2,3.7 26.6,3 27.1,2.4 C27.6,1.8 28.2,1.3 28.9,1 C29.6,0.7 30.4,0.4 31.4,0.3 Z M35.4,6.6 C35.3,5.7 35.1,4.9 34.8,4.2 C34.5,3.5 34,3.1 33.4,2.8 C32.8,2.5 32.2,2.4 31.5,2.4 C31,2.4 30.5,2.6 30.1,2.8 C29.7,3 29.3,3.3 29,3.7 C28.7,4.1 28.5,4.6 28.4,5.1 C28.3,5.7 28.2,6.3 28.3,7 C28.3,7.7 28.5,8.4 28.7,8.9 C28.9,9.5 29.2,9.9 29.6,10.3 C30,10.7 30.3,10.9 30.8,11.1 C31.2,11.3 31.7,11.3 32.2,11.3 C32.9,11.3 33.4,11.1 34,10.7 C34.5,10.3 34.9,9.8 35.2,9.1 C35.4,8.4 35.5,7.5 35.4,6.6 Z"></path>
                        <path d="M49.8,12.4 C49.6,13.1 49.2,13.7 48.6,14.2 C48,14.7 47.4,14.9 46.5,15.1 C45.7,15.2 44.8,15.1 43.8,14.8 C42.6,14.4 41.7,13.9 41.1,13.2 C40.7,12.7 40.3,12.1 40.2,11.5 C40,10.9 40,10.3 40.2,9.8 C40.3,9.5 40.5,9.3 40.7,9.1 C40.9,8.9 41.3,8.9 41.6,9 C41.9,9.1 42,9.2 42.2,9.4 C42.3,9.6 42.4,9.9 42.4,10.3 C42.4,10.7 42.5,11.1 42.6,11.4 C42.7,11.7 42.9,12 43.2,12.3 C43.5,12.6 43.9,12.8 44.4,12.9 C45.1,13.1 45.8,13.1 46.3,12.9 C46.9,12.7 47.2,12.4 47.4,11.9 C47.5,11.5 47.5,11.1 47.3,10.8 C47.1,10.5 46.9,10.2 46.5,9.9 C46.2,9.6 45.7,9.4 45.1,9 C44.3,8.5 43.6,8.1 43.2,7.6 C42.7,7.1 42.4,6.6 42.2,6.1 C42,5.5 42,4.9 42.2,4.2 C42.4,3.5 42.8,3 43.3,2.6 C43.8,2.2 44.5,2 45.2,1.9 C45.9,1.8 46.8,1.9 47.7,2.2 C48.4,2.4 49,2.7 49.5,3.1 C50,3.5 50.4,3.8 50.6,4.2 C50.9,4.6 51,5 51.1,5.4 C51.2,5.8 51.1,6.1 51,6.5 C50.9,6.8 50.7,7 50.4,7.2 C50.1,7.4 49.8,7.4 49.5,7.3 C49.2,7.2 49,7.1 48.9,6.9 C48.8,6.7 48.7,6.4 48.6,6.1 C48.5,5.6 48.4,5.1 48.1,4.8 C47.9,4.5 47.4,4.2 46.7,4 C46.1,3.8 45.5,3.8 45.1,3.9 C44.6,4.1 44.3,4.3 44.2,4.7 C44.1,4.9 44.1,5.2 44.2,5.4 C44.3,5.6 44.4,5.8 44.6,6 C44.8,6.2 45,6.4 45.2,6.5 C45.4,6.6 45.8,6.9 46.3,7.2 C46.9,7.6 47.5,7.9 48,8.3 C48.5,8.7 48.9,9 49.2,9.4 C49.5,9.8 49.7,10.2 49.8,10.7 C50.1,11.2 50,11.8 49.8,12.4 Z"></path>
                    </g>
                </g>
                <g transform="translate(16.000000, 21.000000)" id="Shape">
                    <polygon fill="#111C21" points="61.4 16.2 70.4 7.1 67.6 0.4 57.5 0.4 57.5 0.4 57.5 0.4 42.6 0.4 39.8 1.6 31.9 9.4 31.9 4.3 25.2 1.6 12.6 14.1 0.1 26.6 2.9 33.4 11.5 33.4 11.5 41.9 11.5 51.4 12.6 54.2 25.2 66.8 31.9 64 31.9 55.4 51.4 55.4 54.2 54.2 66.7 41.7 67.8 39 67.8 20.1 63.9 16.2"></polygon>
                    <g transform="translate(2.000000, 4.000000)" fill="#FFFFFF">
                        <polygon points="13.4 37.9 13.4 47.4 26 60 26 31 26 12.9 26 0.3 13.4 12.9 0.9 25.4 13.4 25.4"></polygon>
                        <polygon points="40.6 16.1 40.6 12.8 53.1 12.8 53.1 12.8 53.1 12.8 65.6 0.3 55.5 0.3 55.5 0.4 55.5 0.3 40.6 0.3 28.1 12.8 28.1 28.6 28.1 28.6 28.1 28.6 49.4 28.6 49.4 35 29.4 35 28.1 35 28.1 47.4 49.4 47.4 61.9 35 61.9 16.1"></polygon>
                    </g>
                </g>
            </g>
        </g>
    </g>
</svg>